<svg width="800" height="747" viewBox="0 0 800 747" fill="none" xmlns="http://www.w3.org/2000/svg">
<g clip-path="url(#clip0_215_272)">
<path d="M783 174C783.473 384.055 783.473 384.055 769 429C768.34 429 767.68 429 767 429C766.527 427.886 766.054 426.773 765.566 425.625C757.017 405.775 746.2 382.801 728 370C723.744 371.605 721.141 374.822 718.188 378.125C717.653 378.714 717.118 379.303 716.567 379.91C713.26 383.562 709.996 387.25 706.773 390.977C704.549 393.515 702.275 396.006 700 398.5C697.155 401.619 694.328 404.748 691.562 407.938C688.172 411.839 684.679 415.643 681.179 419.446C678.345 422.526 675.537 425.627 672.75 428.75C664.054 438.432 655.162 447.944 645.891 457.078C644.09 458.909 642.414 460.795 640.75 462.75C633.783 470.854 626.035 478.416 617.891 485.328C615.664 487.298 613.588 489.384 611.5 491.5C607.492 495.549 603.323 499.294 599 503C597.885 503.978 596.77 504.957 595.656 505.938C547.806 547.941 493.247 579.319 433.013 599.963C430.445 600.847 427.887 601.752 425.332 602.672C392.993 614.14 358.01 621 324.067 625.578C321.078 625.989 318.099 626.447 315.117 626.906C299.872 629.083 284.686 629.317 269.312 629.375C268.288 629.383 267.265 629.391 266.209 629.399C244.099 629.531 222.547 626.925 201 622C200.213 621.822 199.426 621.645 198.616 621.462C169.83 614.829 141.226 601.669 119 582C118.51 581.571 118.021 581.141 117.517 580.699C86.5885 553.478 65.0901 514.109 60 473C59.8925 470.321 59.9529 467.684 60 465C58.68 465 57.36 465 56 465C55.67 462.03 55.34 459.06 55 456C56.65 455.67 58.3 455.34 60 455C60.3171 455.935 60.6342 456.869 60.9609 457.832C70.1374 484.003 85.2367 507.533 107 525C108.381 526.114 108.381 526.114 109.789 527.25C136.291 547.733 169.927 558.714 203 562C204.483 562.164 204.483 562.164 205.996 562.332C225.572 564.129 245.527 563.551 265 561C265.993 560.871 266.986 560.742 268.009 560.609C302.97 555.935 335.781 546.318 368 532C368.888 531.607 369.777 531.215 370.692 530.81C399.124 518.116 425.8 501.09 450.801 482.613C453.051 480.963 455.317 479.337 457.59 477.719C466.757 471.184 475.668 464.423 484.393 457.308C486.665 455.459 488.958 453.636 491.25 451.812C504.06 441.552 516.626 431.034 528.781 420.004C530.793 418.187 532.827 416.401 534.875 414.625C539.212 410.844 543.448 406.957 547.677 403.056C549.697 401.195 551.725 399.344 553.761 397.502C563.207 388.906 572.24 379.912 581.259 370.872C583.888 368.237 586.522 365.609 589.156 362.98C590.852 361.284 592.547 359.588 594.242 357.891C595.018 357.116 595.795 356.342 596.594 355.545C600.716 351.406 604.681 347.187 608.484 342.754C610.871 339.993 613.379 337.349 615.875 334.688C620.342 329.886 624.593 324.97 628.684 319.84C630.429 317.7 632.2 315.627 634.035 313.566C634.548 312.984 635.061 312.401 635.59 311.801C636.595 310.663 637.609 309.534 638.635 308.414C641.306 305.519 641.306 305.519 641.914 301.793C636.946 292.048 625.418 286.412 615.492 282.797C598.869 277.482 581.294 275.756 564 274C567.431 271.19 571.2 269.28 575.16 267.34C575.864 266.99 576.568 266.641 577.293 266.281C579.548 265.163 581.805 264.05 584.062 262.938C593.128 258.463 602.162 253.948 611.094 249.211C622.452 243.192 633.938 237.432 645.438 231.688C646.538 231.138 647.638 230.588 648.771 230.021C664.379 222.226 680.01 214.537 695.924 207.384C699.127 205.943 702.321 204.482 705.516 203.02C726.882 193.309 748.695 184.543 770.812 176.688C771.606 176.404 772.399 176.12 773.217 175.827C776.7 174.623 779.271 174 783 174Z" fill="url(#paint0_linear_215_272)"/>
<path d="M596 512C606.51 512.527 620.353 532.656 627 540C630.97 544.401 634.876 548.845 638.664 553.403C639.847 554.817 641.062 556.204 642.281 557.586C644.594 560.476 646.132 562.455 645.809 566.238C641.642 578.537 631.398 590.393 623 600C622.117 601.016 622.117 601.016 621.216 602.052C614.428 609.738 607.163 616.917 599.875 624.125C589.791 633.991 589.791 633.991 580.33 644.445C578.346 646.765 576.191 648.876 574 651C537.883 622.798 537.883 622.798 533 604C534.087 600.978 535.95 598.684 537.938 596.188C538.76 595.09 538.76 595.09 539.599 593.971C541.371 591.624 543.18 589.31 545 587C546.192 585.473 547.383 583.946 548.574 582.418C550.355 580.139 552.137 577.86 553.923 575.586C563.13 563.809 570.841 551.119 578.668 538.402C581.981 533.022 585.324 527.661 588.688 522.312C589.193 521.505 589.698 520.697 590.218 519.864C590.686 519.121 591.154 518.379 591.637 517.613C592.046 516.961 592.456 516.31 592.878 515.638C594 514 594 514 596 512Z" fill="#B1B2B3"/>
<path d="M466.5 323.5C468.5 324.5 468 326 468.746 327.93C469.088 329.175 469.088 329.175 469.438 330.445C469.693 331.358 469.948 332.271 470.211 333.211C470.602 334.653 470.602 334.653 471 336.125C471.391 337.533 471.391 337.533 471.789 338.969C472.297 340.802 472.803 342.635 473.305 344.47C474.18 347.653 475.086 350.827 476 354C477.32 354 478.64 354 480 354C481.464 352.631 481.464 352.631 482.578 350.719C483.016 350.042 483.455 349.365 483.906 348.668C484.35 347.953 484.793 347.237 485.25 346.5C485.938 345.427 485.938 345.427 486.641 344.332C487.773 342.563 488.888 340.782 490 339C492.867 340.433 493.063 342.552 494.056 345.45C494.308 346.21 494.561 346.97 494.82 347.754C495.084 348.529 495.347 349.305 495.619 350.104C496.461 352.588 497.293 355.075 498.125 357.562C498.693 359.244 499.262 360.926 499.832 362.607C501.229 366.736 502.617 370.867 504 375C504.99 375 505.98 375 507 375C511.155 364.052 515.142 353.056 519 342C519.66 342 520.32 342 521 342C523.31 346.29 525.62 350.58 528 355C528.99 354.67 529.98 354.34 531 354C531.765 352.33 532.526 350.659 533.263 348.976C534.985 345.387 536.793 342.429 540 340C547.48 337.6 555.842 338.692 563.562 339.125C565.737 339.195 567.913 339.259 570.088 339.316C575.397 339.47 580.697 339.704 586 340C588.008 356.778 588.008 356.778 583.691 362.893C580.611 366.522 577.085 369.632 573.5 372.75C572.311 373.852 571.126 374.959 569.945 376.07C566.686 379.113 563.359 382.069 560 385C558.733 386.113 558.733 386.113 557.441 387.248C556.122 388.404 554.799 389.557 553.471 390.704C552.274 391.759 551.128 392.872 550 394C547.88 394.246 547.88 394.246 545.204 394.241C544.191 394.243 543.179 394.246 542.136 394.249C540.463 394.238 540.463 394.238 538.757 394.227C537.587 394.227 536.416 394.228 535.21 394.228C531.995 394.227 528.78 394.217 525.566 394.203C522.208 394.19 518.85 394.189 515.492 394.187C509.131 394.181 502.771 394.164 496.41 394.144C489.17 394.122 481.929 394.111 474.688 394.101C459.792 394.08 444.896 394.045 430 394C429.923 393.445 429.846 392.889 429.767 392.317C429.408 389.744 429.038 387.173 428.668 384.602C428.547 383.728 428.427 382.855 428.303 381.955C427.214 374.467 425.287 367.407 422.988 360.211C422 357 421 354.5 421 352.5C431.89 352.17 443.78 354.34 455 354C457.604 347.489 460.044 341.09 462.188 334.438C464.867 326.133 465.367 324.633 466.5 323.5Z" fill="#F49409"/>
<path d="M516 624C520.038 625.355 522.468 627.083 525.477 630.078C526.723 631.316 526.723 631.316 527.995 632.578C528.863 633.46 529.731 634.341 530.625 635.25C531.96 636.597 531.96 636.597 533.322 637.971C550.889 655.918 550.889 655.918 554 665C550.276 669.908 546.399 673.155 541.25 676.5C540.474 677.009 539.698 677.518 538.899 678.043C520.757 689.748 501.465 699.701 482 709C481.311 709.34 480.621 709.68 479.911 710.03C475.578 712.065 475.578 712.065 473.034 711.779C470.525 710.818 469.253 709.58 467.391 707.648C466.718 706.961 466.045 706.274 465.352 705.566C464.658 704.843 463.965 704.12 463.25 703.375C458.553 698.527 453.837 693.863 448.655 689.53C447 688 447 688 445 685C450.385 680.011 455.784 675.111 461.5 670.5C465.285 667.447 468.922 664.293 472.5 661C476.97 656.886 481.59 653.029 486.316 649.215C488.947 647.044 491.479 644.798 494 642.5C499.169 637.792 504.566 633.397 510 629C512.007 627.341 514.004 625.672 516 624Z" fill="#B1B2B3"/>
<path d="M480 590.001C482.768 591.673 485.299 593.673 487.875 595.626C488.57 596.135 489.265 596.644 489.98 597.169C494.543 600.598 498.756 604.255 502 609.001C502 609.661 502 610.321 502 611.001C500.672 612.306 500.672 612.306 498.75 613.876C494.97 617.08 491.473 620.474 488 624.001C484.082 627.969 480.099 631.754 475.848 635.368C473.863 637.122 472.032 638.976 470.188 640.876C461.582 649.565 451.583 656.741 441.647 663.825C440.25 664.822 438.862 665.832 437.477 666.845C434.58 668.842 432.75 670.055 429.172 669.798C416.318 666.568 405.142 657.135 397 647.001C401.889 639.626 406.918 632.571 412.804 625.958C415.225 623.215 417.355 620.534 419.23 617.388C426.722 605.345 437.517 602.978 450.601 599.089C456.958 597.054 463.043 594.345 469.146 591.654C469.992 591.292 470.839 590.929 471.711 590.556C472.446 590.231 473.181 589.906 473.939 589.571C476.428 588.883 477.602 589.082 480 590.001Z" fill="#B1B2B3"/>
<path d="M674 435C674.66 435 675.32 435 676 435C678.881 438.648 681.422 442.514 683.959 446.407C684.782 447.667 685.628 448.912 686.48 450.152C690.696 457.108 690.127 465.124 688.358 472.777C673.217 529.894 673.217 529.894 657 544C653.153 542.718 652.533 541.193 650.25 537.875C642.268 526.761 632.104 517.434 621.387 509.008C617.838 506.022 614.887 502.617 612 499C614.688 495.556 617.384 492.577 620.717 489.748C624.828 486.191 628.698 482.447 632.535 478.598C633.218 477.916 633.9 477.235 634.603 476.533C636.033 475.103 637.463 473.672 638.891 472.24C641.057 470.068 643.228 467.902 645.4 465.736C646.8 464.336 648.199 462.936 649.598 461.535C650.236 460.898 650.875 460.262 651.533 459.606C655.304 455.815 658.888 451.916 662.363 447.851C664.625 445.294 667.056 442.928 669.496 440.543C671.139 438.926 671.139 438.926 672.812 436.562C673.204 436.047 673.596 435.531 674 435Z" fill="#B1B2B3"/>
<path d="M377.828 306.923C379.95 308.554 381.984 310.241 384 312.001C384.608 312.491 385.217 312.981 385.844 313.485C395.974 321.749 405.263 333.277 411 345.001C411 345.991 411 346.981 411 348.001C404.989 347.671 399.146 347.093 393.247 345.857C382.225 343.548 371.568 343.705 360.385 344.368C358.119 344.501 355.853 344.618 353.586 344.735C350.496 344.896 347.431 345.151 344.352 345.454C336.935 346.023 331.477 346.074 325.426 341.367C323.695 339.882 321.997 338.366 320.305 336.837C310.21 327.767 295.708 324.446 282.492 324.778C273.574 325.347 265.938 326.868 258 331.001C257.126 331.422 256.252 331.844 255.352 332.278C247.46 336.268 240.896 341.515 235.09 348.2C225.347 356.596 197.371 353.185 185 353.001C189.699 337.677 197.265 324.941 208 313.001C208.673 312.245 209.346 311.49 210.039 310.712C254.474 263.614 327.965 273.038 377.828 306.923ZM220 310.001C218.805 311.076 218.805 311.076 217.586 312.173C208.831 320.401 199.575 331.778 195 343.001C195 343.991 195 344.981 195 346.001C199.02 346.051 203.04 346.087 207.061 346.111C208.426 346.121 209.792 346.134 211.157 346.152C213.128 346.176 215.099 346.186 217.07 346.196C218.846 346.212 218.846 346.212 220.657 346.228C224.93 345.938 228.581 345.254 231.844 342.372C232.39 341.734 232.937 341.096 233.5 340.438C246.239 327.042 265.072 319.137 283.375 318.563C300.768 319.009 319.566 326.567 332 339.001C333.52 339.101 335.044 339.132 336.566 339.134C337.52 339.136 338.474 339.138 339.457 339.14C340.482 339.135 341.507 339.131 342.562 339.126C344.114 339.123 344.114 339.123 345.698 339.12C354.164 339.073 362.562 338.687 371 338.001C369.112 324.545 352.783 311.253 342.637 303.259C304.333 275.688 254.69 277.497 220 310.001Z" fill="#F49409"/>
<path d="M658 584C660.939 584.327 661.919 584.912 663.965 587.117C676.483 604.618 676.483 604.618 675 615C671.227 633.217 648.65 650.586 635 662C634.086 662.803 633.172 663.606 632.23 664.434C626.101 669.789 619.774 674.739 613.125 679.438C612.424 679.933 611.723 680.429 611 680.94C609.017 682.321 607.016 683.668 605 685C604.048 685.646 604.048 685.646 603.077 686.305C601.242 687.473 601.242 687.473 598 689C592.848 687.83 589.668 682.222 587 678C585.413 674.401 584.133 670.765 583 667C586.915 663.025 590.966 659.224 595.062 655.438C604.554 646.603 613.778 637.812 621.863 627.637C623.95 625.062 626.129 622.624 628.375 620.188C632.959 615.156 637.117 609.844 641.289 604.473C646.696 597.517 652.343 590.752 658 584Z" fill="#B1B2B3"/>
<path d="M707 476C717.893 486.428 729.799 502.212 730.899 517.718C731.057 527.102 728.498 534.449 724.202 542.667C722.841 545.309 721.562 547.984 720.285 550.668C712.974 565.879 705.133 581.19 694 594C690.769 592.628 689.133 591.231 687.125 588.367C686.359 587.281 686.359 587.281 685.578 586.172C684.797 585.035 684.797 585.035 684 583.875C683.479 583.14 682.958 582.405 682.422 581.648C676.588 573.282 671.917 565.745 673.454 555.139C674.808 549.835 677.781 545.121 680.442 540.383C687.949 526.982 692.878 512.444 697.892 497.964C699.584 493.095 701.403 488.288 703.312 483.5C703.567 482.858 703.822 482.216 704.084 481.555C705.872 477.128 705.872 477.128 707 476Z" fill="#B1B2B3"/>
<path d="M726 377C732.715 378.008 736.519 385.01 740.309 390.102C742.634 393.342 744.817 396.663 747 400C747.628 400.884 748.256 401.769 748.903 402.68C754.151 410.805 753.701 418.738 753 428C752.943 428.796 752.885 429.593 752.826 430.414C752.374 436.296 751.728 442.146 751 448C750.856 449.211 750.856 449.211 750.708 450.447C749.588 459.534 747.894 468.219 745.063 476.938C744.822 477.689 744.581 478.441 744.333 479.215C742.896 483.368 741.404 486.185 738 489C737.478 487.912 736.956 486.824 736.418 485.703C732.03 476.845 727.492 469.605 720.481 462.613C715.567 457.436 713.526 453.965 713.547 446.871C713.573 445.986 713.599 445.1 713.625 444.188C713.639 443.256 713.653 442.325 713.667 441.365C713.809 435.031 714.352 428.818 715.215 422.546C716.145 415.603 716.418 408.657 716.658 401.66C717.181 387.153 717.181 387.153 719.594 383.758C720.223 383.219 720.852 382.68 721.5 382.125C724.145 379.87 724.145 379.87 726 377Z" fill="#B1B2B3"/>
<path d="M327 631C329.882 631.937 332.543 633.209 335.25 634.562C336.367 635.106 336.367 635.106 337.506 635.662C346.68 640.213 355.969 645.405 363 653C363.495 654.485 363.495 654.485 364 656C354.235 664.858 354.235 664.858 350.813 667.562C348.566 669.509 346.804 671.323 344.899 673.57C340.744 678.364 336.308 682.84 331.813 687.312C330.623 688.508 330.623 688.508 329.409 689.728C328.641 690.495 327.873 691.261 327.082 692.051C326.394 692.738 325.705 693.425 324.996 694.134C323.074 695.931 321.195 697.547 319 699C314.308 698.811 309.916 696.345 305.688 694.437C304.947 694.108 304.207 693.779 303.444 693.439C301.627 692.631 299.814 691.816 298 691C297.47 674.033 305.219 657.165 312.313 642.125C312.733 641.233 313.153 640.342 313.586 639.424C316.871 632.723 319.013 630.274 327 631Z" fill="#B1B2B3"/>
<path d="M381 665C384.373 666.258 387.289 667.689 390.285 669.68C391.063 670.197 391.841 670.714 392.643 671.246C393.441 671.784 394.24 672.321 395.062 672.875C395.865 673.405 396.667 673.935 397.494 674.48C401.342 677.054 404.897 679.519 408 683C403.324 695.47 380.112 703.787 369 709C358.572 713.721 349.241 714.665 338 714C338.35 704.192 343.872 699.138 350.625 692.812C351.61 691.859 352.593 690.904 353.574 689.947C358.337 685.329 363.217 680.855 368.24 676.522C370.87 674.248 373.432 671.906 376 669.562C376.949 668.698 377.897 667.833 378.875 666.941C379.927 665.98 379.927 665.98 381 665Z" fill="#B1B2B3"/>
<path d="M569 685.001C569.983 686.583 569.983 686.583 570.824 688.598C571.13 689.317 571.437 690.036 571.752 690.776C572.215 691.908 572.215 691.908 572.688 693.063C573.008 693.822 573.328 694.581 573.658 695.362C574.449 697.238 575.226 699.119 576 701.001C554.055 717.524 521.125 732.993 493.188 733.188C492.253 733.203 491.318 733.217 490.355 733.231C488 733.001 488 733.001 486 731.001C488.152 726.755 490.143 724.979 494.348 722.802C495.418 722.238 496.488 721.674 497.591 721.093C498.737 720.506 499.882 719.918 501.062 719.313C502.258 718.688 503.452 718.061 504.645 717.432C507.018 716.183 509.394 714.939 511.771 713.698C515.821 711.569 519.824 709.366 523.812 707.126C525.207 706.347 526.601 705.568 527.996 704.79C528.755 704.366 529.514 703.942 530.296 703.506C535.653 700.524 541.02 697.562 546.386 694.599C547.703 693.872 549.019 693.145 550.336 692.417C552.189 691.392 554.044 690.368 555.898 689.345C556.978 688.748 558.057 688.152 559.169 687.538C560.104 687.031 561.038 686.523 562 686.001C563.086 685.371 563.086 685.371 564.194 684.729C566 684.001 566 684.001 569 685.001Z" fill="#B1B2B3"/>
<path d="M430 699C432.29 700.918 432.29 700.918 434.766 703.403C435.655 704.293 436.545 705.183 437.461 706.1C438.381 707.036 439.302 707.973 440.25 708.938C441.195 709.881 442.14 710.823 443.086 711.764C450 718.734 450 718.734 450 721C422.082 729.239 397.401 735.864 368 735C367.505 733.515 367.505 733.515 367 732C369.634 726.814 372.828 724.585 377.984 722.286C379.426 721.604 380.867 720.921 382.307 720.235C383.069 719.876 383.832 719.517 384.617 719.148C388.785 717.141 392.863 714.966 396.953 712.809C398.66 711.918 400.367 711.028 402.074 710.139C404.691 708.776 407.306 707.409 409.915 706.03C412.484 704.675 415.061 703.334 417.641 701.996C418.423 701.579 419.205 701.161 420.011 700.731C420.74 700.357 421.469 699.982 422.22 699.596C422.855 699.262 423.491 698.929 424.146 698.586C426.498 697.843 427.712 698.137 430 699Z" fill="#B1B2B3"/>
<path d="M340 182C342.5 182.312 342.5 182.312 345 183C346.128 185.256 346.249 186.803 346.449 189.312C346.559 190.659 346.559 190.659 346.672 192.033C346.786 193.502 346.786 193.502 346.902 195C347.025 196.523 347.025 196.523 347.151 198.077C347.417 201.384 347.677 204.692 347.938 208C348.118 210.256 348.299 212.512 348.48 214.768C349.48 227.268 350.47 239.769 351.404 252.273C351.741 256.77 352.116 261.258 352.547 265.746C352.916 269.741 353.11 273.673 353.062 277.688C353.053 278.702 353.044 279.716 353.035 280.762C353.024 281.5 353.012 282.239 353 283C350.69 282.34 348.38 281.68 346 281C344.161 266.036 343.041 251.038 342 236C341.914 237.1 341.829 238.2 341.74 239.333C341.421 243.418 341.098 247.503 340.773 251.588C340.633 253.356 340.495 255.123 340.357 256.89C340.159 259.432 339.957 261.974 339.754 264.516C339.693 265.304 339.633 266.093 339.571 266.906C339.29 270.372 338.907 273.645 338 277C335.69 276.67 333.38 276.34 331 276C331.625 264.993 332.321 253.995 333.121 243C333.199 241.931 333.199 241.931 333.278 240.841C333.551 237.09 333.826 233.338 334.102 229.586C334.327 226.515 334.549 223.443 334.768 220.371C335.035 216.609 335.31 212.849 335.588 209.088C335.692 207.672 335.794 206.256 335.893 204.84C337.311 184.689 337.311 184.689 340 182Z" fill="#F49409"/>
<path d="M487 399C497.89 399 508.78 399 520 399C520.309 404.167 520.309 404.167 520.625 409.438C520.716 410.504 520.807 411.571 520.901 412.67C521.022 416.896 520.722 419.948 518.29 423.494C512.646 429.076 508.322 430.958 500.35 431.044C498.135 431.019 495.924 430.95 493.711 430.879C492.156 430.862 490.601 430.849 489.046 430.84C484.984 430.806 480.925 430.718 476.864 430.618C472.708 430.525 468.551 430.485 464.395 430.439C456.262 430.343 448.131 430.19 440 430C439.438 428.062 439.438 428.062 439 426C440 425 440 425 441.905 424.88C442.737 424.882 443.57 424.884 444.428 424.886C445.369 424.887 446.31 424.887 447.279 424.887C448.302 424.892 449.325 424.897 450.379 424.902C451.421 424.904 452.463 424.905 453.536 424.907C456.878 424.912 460.22 424.925 463.562 424.938C465.822 424.943 468.082 424.947 470.342 424.951C475.895 424.961 481.447 424.981 487 425C487 416.42 487 407.84 487 399Z" fill="#F49409"/>
<path d="M295 634C293.07 640.042 290.891 645.911 288.426 651.754C288.097 652.54 287.768 653.327 287.43 654.137C286.394 656.613 285.353 659.088 284.312 661.562C283.603 663.256 282.894 664.949 282.186 666.643C280.46 670.763 278.731 674.882 277 679C273.868 677.797 270.928 676.495 268.012 674.836C267.375 674.475 266.737 674.115 266.081 673.744C265.291 673.292 264.501 672.84 263.688 672.375C259.882 670.209 259.882 670.209 256 668C256 657.11 256 646.22 256 635C261.072 634.857 266.144 634.715 271.216 634.573C272.942 634.524 274.667 634.476 276.393 634.427C278.873 634.357 281.352 634.288 283.832 634.219C284.604 634.197 285.376 634.175 286.171 634.152C289.115 634.071 292.055 634 295 634Z" fill="#B1B2B3"/>
<path d="M206.934 540.755C208.534 540.796 208.534 540.796 210.167 540.837C211.432 540.891 212.697 540.945 214 541.001C214.731 541.03 215.463 541.059 216.216 541.089C221.516 541.301 226.814 541.546 232.111 541.798C251.067 542.697 270.014 543.324 288.989 543.659C297.696 543.82 306.33 544.094 315 545.001C302.436 551.499 286.801 552.843 273 555.001C271.36 555.276 271.36 555.276 269.688 555.556C265.697 556.037 261.819 556.065 257.812 555.95C257.04 555.932 256.268 555.914 255.473 555.895C252.982 555.834 250.491 555.762 248 555.688C247.153 555.665 246.305 555.641 245.432 555.617C235.125 555.324 224.839 554.941 214.562 554.063C213.672 553.989 212.782 553.914 211.865 553.838C207.023 553.372 202.632 552.491 198 551.001C197.75 547.688 197.75 547.688 198 544.001C200.872 541.116 202.94 540.635 206.934 540.755Z" fill="#F49409"/>
<path d="M218 514C218.99 514.66 219.98 515.32 221 516C221.5 518.875 221.5 518.875 221 522C216.598 526.59 210.623 528.346 204.812 530.562C197.783 533.283 190.801 536.047 183.922 539.132C182.774 539.642 181.625 540.152 180.442 540.677C178.239 541.662 176.043 542.663 173.857 543.684C165.821 547.239 160.198 547.598 151.836 545.027C151.024 544.667 150.212 544.308 149.375 543.937C148.537 543.575 147.699 543.213 146.836 542.84C146.23 542.562 145.624 542.285 145 542C147.699 539.836 150.184 538.361 153.407 537.118C154.273 536.78 155.139 536.443 156.031 536.095C157.429 535.561 157.429 535.561 158.855 535.015C159.831 534.637 160.806 534.258 161.81 533.868C164.934 532.656 168.06 531.452 171.188 530.25C174.258 529.063 177.328 527.875 180.397 526.686C182.405 525.908 184.413 525.132 186.423 524.357C191 522.587 195.555 520.786 200.069 518.861C200.842 518.532 201.616 518.204 202.413 517.865C203.826 517.259 205.236 516.644 206.64 516.018C210.581 514.327 213.715 513.516 218 514Z" fill="#F49409"/>
<path d="M391 267C393.367 267.164 393.367 267.164 396 268C397.258 270.398 397.258 270.398 398.125 273.375C399.529 278.372 399.529 278.372 403 282C405.72 283.005 405.72 283.005 408.688 283.688C409.681 283.939 410.675 284.19 411.699 284.449C412.458 284.631 413.218 284.813 414 285C414 286.65 414 288.3 414 290C413.42 290.17 412.84 290.34 412.242 290.516C407.313 292.045 402.847 293.435 399 297C398.213 299.331 397.762 301.542 397.422 303.977C397 306 397 306 395 308C392.375 307.625 392.375 307.625 390 307C389.83 306.397 389.66 305.793 389.484 305.172C387.606 298.692 387.606 298.692 383 294C380.695 293.127 378.395 292.381 376.023 291.711C374 291 374 291 372 289C372.109 286.965 372.109 286.965 373 285C374.891 284.129 374.891 284.129 377.25 283.562C381.739 282.211 384.124 280.862 387 277C388.525 273.728 389.815 270.409 391 267Z" fill="#F49409"/>
<path d="M306 148C308.625 148.375 308.625 148.375 311 149C311.159 149.675 311.317 150.351 311.48 151.047C312.941 156.673 312.941 156.673 316.125 161.438C319.934 163.508 323.843 164.804 328 166C328 167.65 328 169.3 328 171C327.408 171.17 326.817 171.34 326.207 171.516C319.4 173.565 319.4 173.565 314 178C313.123 180.602 312.441 183.169 311.871 185.855C311.44 186.917 311.44 186.917 311 188C308.91 188.801 308.91 188.801 307 189C304.399 185.878 302.75 182.566 301.062 178.902C299.332 175.803 297.866 174.331 294.52 173.051C293.626 172.807 292.733 172.564 291.812 172.312C290.911 172.061 290.01 171.81 289.082 171.551C288.395 171.369 287.708 171.187 287 171C287.33 169.02 287.66 167.04 288 165C288.843 164.734 289.686 164.469 290.555 164.195C291.65 163.842 292.746 163.489 293.875 163.125C294.966 162.777 296.056 162.429 297.18 162.07C300.085 161.188 300.085 161.188 302 159C302.604 156.868 302.604 156.868 303 154.5C303.778 150.222 303.778 150.222 306 148Z" fill="#F49409"/>
<path d="M551 547C551 550.348 550.565 550.99 548.691 553.625C548.196 554.326 547.701 555.027 547.191 555.75C546.653 556.492 546.116 557.235 545.562 558C545.016 558.764 544.469 559.528 543.905 560.315C536.865 570.066 529.187 579.188 521 588C520.523 588.608 520.046 589.217 519.555 589.844C518 591 518 591 515.66 590.895C512.578 589.858 510.164 588.458 507.438 586.688C506.508 586.093 505.579 585.499 504.621 584.887C502.135 583.097 500.133 581.186 498 579C498.623 578.648 499.247 578.296 499.889 577.934C504.932 575.087 509.973 572.237 515.012 569.383C518.36 567.487 521.712 565.599 525.082 563.742C534.123 558.712 542.559 552.963 551 547Z" fill="#B1B2B3"/>
<path d="M158 420.999C159 421.999 159 421.999 159.562 425.749C159.496 428.244 159.39 429.531 157.777 431.464C152.862 434.845 147.091 436.389 141.419 438.044C137.092 439.307 132.947 440.781 128.775 442.487C121.402 445.488 115.014 446.819 107 445.999C106.414 440.14 106.414 440.14 107 437.999C112.221 433.37 119.05 431.674 125.562 429.499C127.219 428.933 127.219 428.933 128.908 428.355C132.265 427.214 135.63 426.102 139 424.999C140.164 424.612 141.328 424.226 142.527 423.827C143.661 423.461 144.796 423.095 145.965 422.718C146.981 422.387 147.996 422.057 149.043 421.716C152.153 420.962 154.812 420.797 158 420.999Z" fill="#F49409"/>
<path fill-rule="evenodd" clip-rule="evenodd" d="M366.978 148.302L369.72 148.263L372.69 148.241L375.74 148.216C377.872 148.202 380.005 148.192 382.138 148.184C385.397 148.166 388.655 148.123 391.915 148.078C393.986 148.068 396.057 148.06 398.128 148.053L401.079 148C405.426 148.014 407.907 148.05 411.68 150.357C413.749 152.634 414.799 154.474 415.858 157.354L416.811 159.846C417.677 162.706 418.14 165.53 418.608 168.479L421.45 168.447C424.95 168.413 428.45 168.388 431.95 168.369C433.461 168.359 434.972 168.345 436.483 168.328C438.663 168.304 440.842 168.292 443.022 168.284L446.989 168.252C451.589 168.54 454.953 169.323 458.751 171.975C461.265 175.365 461.2 178.479 461.119 182.398C461.109 182.846 461.1 183.304 461.094 183.774L461.105 186.623C461.113 189.732 461.091 192.839 461.069 195.948C461.067 198.107 461.066 200.267 461.066 202.426C461.063 206.952 461.046 211.478 461.02 216.004C460.986 221.808 460.978 227.612 460.98 233.416C460.979 237.875 460.968 242.334 460.954 246.793C460.947 248.934 460.943 251.074 460.942 253.214C460.937 256.204 460.92 259.194 460.899 262.184L460.901 264.87L460.875 267.342L460.865 269.483C460.784 270.111 460.729 270.542 460.628 270.962C460.41 271.875 459.978 272.738 458.608 275.479L543.608 276.479V277.479L547.14 277.83C551.463 278.261 555.784 278.696 560.106 279.133C561.977 279.321 563.848 279.508 565.719 279.694C568.408 279.962 571.096 280.234 573.784 280.506L576.322 280.756C579.567 281.088 582.503 281.444 585.608 282.479V335.479C567.721 335.336 563.449 335.302 559.177 335.23C557.836 335.207 556.496 335.181 554.735 335.146C551.103 335.773 548.804 335.965 546.988 336.116H546.988C543.437 336.412 541.73 336.555 535.5 339.5C536.138 346.492 531 347.479 529.608 347.479H527.608L520.608 334.479H517.608L516.253 338.213C512.904 347.394 509.493 356.509 505.608 365.479C503.478 362.284 502.538 359.528 501.366 355.877C500.936 354.57 500.505 353.262 500.073 351.955C499.398 349.899 498.729 347.842 498.072 345.78C497.435 343.786 496.777 341.8 496.116 339.815L494.948 336.207L494.948 336.207C494.387 334.658 494.128 333.941 493.627 333.494C493.196 333.11 492.586 332.926 491.451 332.583L489.608 332.479C488.316 334.249 487.024 336.02 485.733 337.791L483.553 340.78C482.202 342.654 480.89 344.556 479.608 346.479H477.608L476.905 344.187C475.849 340.743 474.791 337.298 473.733 333.854L472.628 330.248L471.553 326.752L470.569 323.547C469.618 320.511 468.623 317.493 467.608 314.479H464.608L452.608 349.479H419.608V322.479H417.608L416.608 318.666C415.631 315.975 415.103 314.779 412.628 313.28C411.61 312.895 411.016 312.67 410.412 312.476C409.564 312.203 408.696 311.99 406.608 311.479V306.479L408.253 305.85C412.282 304.115 414.871 302.905 416.608 298.729L417.608 295.479H420.608L420.573 292.233C420.563 290.836 420.554 289.438 420.546 288.041L420.52 285.899C420.511 284.092 420.556 282.285 420.608 280.479L421.608 279.479L418.467 279.182C417.097 279.032 415.728 278.881 414.358 278.729L412.292 278.541C408.987 278.156 406.864 277.671 404.186 275.655C402.577 273.436 402.02 272.091 401.608 269.416C401.028 266.777 400.72 265.616 398.983 263.479C395.485 262.006 392.289 261.724 388.608 262.479C384 265.653 382.728 269.286 381.381 274.491C381.086 275.25 380.904 275.719 380.624 276.121C380.171 276.77 379.462 277.243 377.608 278.479L377.608 278.479L377.607 278.479C376.628 278.586 376.109 278.642 375.588 278.669C375.001 278.699 374.412 278.691 373.159 278.674L370.59 278.655L367.921 278.604L365.215 278.576C363.013 278.553 360.81 278.52 358.608 278.479L358.394 275.549C357.722 266.371 357.045 257.193 356.365 248.016C356.015 243.299 355.667 238.582 355.322 233.866C354.989 229.301 354.651 224.736 354.311 220.171C354.183 218.443 354.056 216.715 353.931 214.986C353.586 210.232 353.217 205.481 352.803 200.732C352.672 199.216 352.547 197.7 352.428 196.183C352.251 193.986 352.043 191.793 351.826 189.6L351.481 185.797C350.407 181.716 348.87 180.097 345.608 177.479C343.859 176.849 342.997 176.538 342.109 176.417C341.246 176.298 340.359 176.359 338.608 176.479H338.608C335.806 178.245 334.093 179.509 332.608 182.479C332.347 184.526 332.141 186.58 331.96 188.635L331.606 192.612C331.481 194.068 331.357 195.523 331.233 196.979L331.038 199.214C330.215 208.643 329.477 218.076 328.815 227.518L328.619 230.317C328.304 234.83 327.996 239.345 327.698 243.86C327.008 254.125 326.016 264.285 324.608 274.479L320.792 274.534L318.645 274.564C315.96 274.452 313.958 273.761 311.608 272.479C310.367 269.996 310.387 267.689 310.411 265.067C310.416 264.536 310.421 263.992 310.415 263.43L310.39 261.232C310.366 258.828 310.349 256.423 310.335 254.018L310.318 251.531C310.292 247.189 310.272 242.847 310.258 238.504C310.241 234.016 310.196 229.528 310.146 225.04C310.112 221.591 310.1 218.143 310.095 214.694C310.088 213.039 310.073 211.385 310.049 209.73C310.017 207.415 310.017 205.102 310.025 202.786L310 198.794C310.303 197.142 310.455 196.314 310.838 195.611C311.225 194.904 311.846 194.325 313.093 193.163L315.608 191.479C316.063 190.357 316.288 189.801 316.428 189.225C316.566 188.66 316.622 188.075 316.733 186.916C317.084 184.38 317.335 182.852 318.854 180.776C321.248 179.006 323.891 178.55 326.717 178.062C327.185 177.981 327.658 177.899 328.135 177.811C329.363 177.254 330.17 176.889 330.816 176.337C332.053 175.281 332.706 173.542 334.608 168.479H352.608L353.796 163.479C355.223 158.216 357.159 153.736 360.608 149.479C362.865 148.35 364.27 148.334 366.708 148.305L366.978 148.302ZM369.877 154.887C371.607 154.887 373.337 154.893 375.066 154.903L377.82 154.907C380.734 154.912 383.648 154.925 386.562 154.938C388.533 154.943 390.504 154.947 392.475 154.951C397.316 154.962 402.158 154.98 407 155C407.654 156.225 408.297 157.456 408.938 158.688L410.027 160.762C410.344 161.49 410.557 161.982 410.736 162.485C411.106 163.53 411.325 164.627 412 168H361L361 168C362.327 160.037 362.836 156.983 364.607 155.766C365.709 155.009 367.299 154.962 369.877 154.887ZM381.765 196.479C383.326 196.483 384.887 196.497 386.448 196.521L388.853 196.523H388.853C393.32 196.558 394.401 196.566 395.159 197.065C395.401 197.224 395.61 197.433 395.886 197.709C395.959 200.406 395.978 203.076 395.948 205.771L395.935 208.07C395.923 209.95 395.905 211.829 395.886 213.709L399.097 213.639C400.485 213.62 401.873 213.602 403.261 213.584L405.378 213.533C407.215 213.516 409.052 213.606 410.886 213.709C413.167 215.99 413.164 217.428 413.159 220.278C413.159 220.53 413.158 220.794 413.159 221.07L413.136 223.146L413.159 225.211C413.145 228.923 412.995 230.545 410.886 233.709C408.24 233.932 405.893 233.99 403.261 233.896L395.886 233.709V249.709C393.329 250.988 390.705 250.95 387.952 250.91H387.952C387.455 250.903 386.954 250.896 386.448 250.896L384.384 250.934C380.658 250.945 379.066 250.829 375.886 248.709C375.664 246.082 375.604 243.7 375.698 241.084L375.739 238.943C375.775 237.198 375.828 235.454 375.886 233.709L372.675 233.779C371.287 233.798 369.899 233.816 368.511 233.834L366.394 233.885C364.557 233.902 362.72 233.812 360.886 233.709C358.585 231.408 358.594 229.791 358.61 226.95L358.61 226.949C358.612 226.63 358.614 226.296 358.612 225.943L358.636 223.709L358.612 221.475C358.625 218.07 358.63 216.769 359.162 215.74C359.492 215.103 360.024 214.571 360.886 213.709C363.466 213.564 365.935 213.522 368.511 213.584L370.651 213.611C372.396 213.635 374.141 213.671 375.886 213.709L375.815 210.498C375.797 209.11 375.779 207.722 375.761 206.334L375.71 204.217C375.692 202.38 375.783 200.543 375.886 198.709C376.746 197.849 377.236 197.359 377.823 197.061C378.603 196.666 379.553 196.61 381.765 196.479ZM382.607 202.479H389.607L390.607 218.479C393.923 219.584 396.812 219.8 400.295 220.041L403.869 220.295L406.607 220.479V226.479L403.615 226.662L399.732 226.916L395.865 227.162C394.107 227.223 393.333 227.25 392.621 227.473C392.061 227.649 391.539 227.947 390.608 228.478L390.607 228.479C390.295 231.193 390.094 233.818 389.982 236.541L389.865 238.84C389.771 240.719 389.688 242.599 389.607 244.479H382.607L382.424 241.232C382.339 239.835 382.255 238.438 382.17 237.041L382.051 234.898V234.898C382.092 233.091 382.112 232.216 381.914 231.393C381.727 230.618 381.346 229.891 380.608 228.479L380.607 228.479C378.081 228.242 375.576 228.057 373.045 227.916L370.891 227.785C369.13 227.679 367.369 227.578 365.607 227.479V219.479H381.607L382.607 202.479Z" fill="#F49409"/>
<path d="M164 616C165.176 616.392 166.351 616.784 167.562 617.188C168.779 617.592 168.779 617.592 170.02 618.004C172.269 618.756 174.516 619.515 176.762 620.277C178.091 620.727 179.421 621.176 180.75 621.625C181.388 621.843 182.025 622.061 182.682 622.286C186.098 623.436 189.446 624.39 193 625C195.548 632.997 196.614 640.625 197 649C189.52 648.512 182.745 645.884 177.523 640.398C174.442 636.494 172.114 632.175 169.75 627.812C169.304 627.006 168.858 626.2 168.398 625.369C166.69 622.255 165.126 619.378 164 616Z" fill="#B1B2B3"/>
<path d="M214 631C234.466 632.466 234.466 632.466 236 634C236.102 636.677 236.141 639.323 236.125 642C236.123 642.771 236.121 643.542 236.119 644.336C236.079 649.623 235.762 654.762 235 660C226.079 660.357 226.079 660.357 222 658C217.11 650.315 215.918 639.792 214 631Z" fill="#B1B2B3"/>
<path d="M274 249C278.603 250.725 282.933 252.91 287.313 255.125C288.053 255.498 288.794 255.87 289.557 256.254C291.372 257.167 293.186 258.083 295 259C295 263.62 295 268.24 295 273C287.74 273.66 280.48 274.32 273 275C272.973 270.854 272.953 266.708 272.938 262.562C272.929 261.378 272.921 260.194 272.912 258.975C272.909 257.85 272.906 256.725 272.903 255.566C272.897 254.524 272.892 253.482 272.887 252.408C273 250 273 250 274 249Z" fill="#F49409"/>
<path d="M142.938 508.876C144.374 508.903 144.374 508.903 145.84 508.93C146.553 508.954 147.266 508.977 148 509.001C149.414 511.83 149.319 513.874 149 517.001C145.811 520.126 141.854 521.254 137.688 522.563C136.729 522.875 136.729 522.875 135.752 523.194C133.839 523.812 131.921 524.409 130 525.001C128.79 525.381 127.579 525.761 126.332 526.153C121.095 527.485 121.095 527.485 118 527.001C115.324 525.251 115.324 525.251 112.688 523.001C111.804 522.258 110.921 521.516 110.012 520.751C109.016 519.884 109.016 519.884 108 519.001C109 517.001 109 517.001 110.93 516.255C112.175 515.912 112.175 515.912 113.445 515.563C114.358 515.308 115.271 515.053 116.211 514.79C117.173 514.529 118.134 514.269 119.125 514.001C120.063 513.74 121.002 513.48 121.969 513.212C123.809 512.701 125.65 512.196 127.493 511.696C129.609 511.109 131.711 510.471 133.809 509.821C137 509.001 139.654 508.795 142.938 508.876Z" fill="#F49409"/>
<path fill-rule="evenodd" clip-rule="evenodd" d="M302.336 331.034L299 329.999C289.412 326.904 278.022 326.73 268.25 329.124C256.477 332.918 244.341 339.024 238 349.999C248.618 350.103 259.162 349.9 269.761 349.258C271.263 349.167 272.764 349.078 274.266 348.99C278.241 348.76 282.215 348.527 286.19 348.29C290.293 348.044 294.397 347.803 298.5 347.563C307.334 347.048 316.167 346.526 325 345.999V343.999C319.022 337.151 310.764 333.828 302.336 331.034ZM298.875 342.124C302.844 341.681 305.585 341.275 309 338.999C292.869 331.171 268.385 329.187 255 342.999C257.371 343.026 259.747 343.065 262.126 343.104C273.623 343.292 285.19 343.482 296.612 342.381L298.875 342.124Z" fill="#F49409"/>
<path d="M398 617.001C397.276 617.786 396.551 618.571 395.805 619.38C390.774 624.843 385.781 630.315 381 636.001C375.808 635.428 371.69 632.902 367.188 630.438C366.005 629.801 366.005 629.801 364.799 629.151C362.863 628.107 360.93 627.056 359 626.001C362.237 623.843 364.421 623.335 368.207 622.563C370.047 622.18 370.047 622.18 371.924 621.79C373.207 621.529 374.49 621.269 375.812 621.001C378.34 620.483 380.868 619.962 383.395 619.438C384.517 619.21 385.64 618.982 386.796 618.747C390.048 618.05 390.048 618.05 393.288 616.848C396 616.001 396 616.001 398 617.001Z" fill="#B1B2B3"/>
<path fill-rule="evenodd" clip-rule="evenodd" d="M497.999 439H424.999L421.999 446C418.522 452.532 416.667 458.286 416.41 465.689L416.374 468.375C416.245 473.208 416.152 477.462 418.98 481.562C422.466 484.377 424.19 484.73 428.544 484.723L430.937 484.625C435.616 484.663 438.963 484.565 443.136 482.289C444.637 481.089 446.142 479.892 447.678 478.735C448.841 477.863 449.997 476.983 451.148 476.094L452.874 474.75C454.917 473.169 456.959 471.586 458.999 470L457.058 468.223C454.277 465.22 454.072 463.036 453.999 459C454.457 457.958 454.687 457.438 455.062 457.062C455.437 456.688 455.957 456.458 456.999 456C460.094 455.747 462.2 455.601 464.999 457L466.124 460.562L466.999 464C467.105 464 467.202 464 467.299 463.994C468.426 463.925 469.504 463.057 483.108 452.102L485.249 450.375L487.325 448.708L489.327 447.086C490.332 446.275 491.005 445.731 491.658 445.165C492.984 444.015 494.229 442.77 497.999 439ZM446 460C443.558 456.596 442.09 455.2 437.937 454.438C433.572 455.273 431.408 457.01 430.5 461.438C431.186 464.954 432.372 466.579 435 469C438.383 469.564 440.233 469.373 443.312 467.875C445.701 465.221 446.071 463.56 446 460Z" fill="#F49409"/>
<path d="M287 709C292.281 709.515 295.572 711.255 300 714C298.276 718.389 295.17 720.915 291 723C287.938 723.125 287.938 723.125 285 723C284 722 284 722 283.75 718.812C284.015 714.774 284.976 712.458 287 709Z" fill="#B1B2B3"/>
<path fill-rule="evenodd" clip-rule="evenodd" d="M299.152 201.336C295.267 193.459 289.634 185.358 281.312 181.875C280.215 181.934 279.638 181.966 279.124 182.161C278.555 182.378 278.063 182.796 277.027 183.676C270.293 191.396 269.221 200.588 269.838 210.456L270 213C270.183 216.514 270.37 220.027 270.58 223.539L270.812 227.25L271.024 230.897L271.27 234.328C271.381 235.998 271.432 236.766 271.538 237.526C271.629 238.172 271.759 238.813 272 240C272.67 240.887 273.127 241.491 273.665 242.012C274.816 243.126 276.337 243.858 281.111 246.156L283.437 247.25L285.752 248.391L287.996 249.453L290.033 250.427C292.481 251.14 293.68 251.057 296 250C298.735 245.276 299.44 239.318 300.026 233.959L300.25 231.5C300.813 225.573 301.117 219.73 300.874 213.777L300.75 211.562C300.554 208.031 300.232 204.728 299.152 201.336ZM286.001 217C284.334 216.959 282.667 216.957 281.001 217C280.962 218.696 280.926 220.392 280.903 222.088L280.876 224.188C280.759 228.861 280.89 232.721 283.001 237H286.001C286.347 236.308 286.586 235.828 286.753 235.324C287.128 234.188 287.13 232.929 287.137 228.83L287.126 226.438L287.137 224.033C287.136 223.478 287.173 222.913 287.209 222.351C287.334 220.392 287.459 218.458 286.001 217Z" fill="#F49409"/>
<path d="M122 592C132.799 597.168 137.642 604.195 142 615C142 615.66 142 616.32 142 617C140.68 617 139.36 617 138 617C137.683 616.357 137.366 615.714 137.039 615.051C133.355 607.917 128.961 601.801 123.977 595.555C122 593 122 593 122 592Z" fill="#B1B2B3"/>
<path d="M698 410C697.67 415.28 697.34 420.56 697 426C692.61 426 691.231 423.872 688 421C688.934 419.727 689.873 418.457 690.812 417.188C691.335 416.48 691.857 415.772 692.395 415.043C696.358 410 696.358 410 698 410Z" fill="#B1B2B3"/>
<path d="M256 694C257.439 694.284 258.876 694.577 260.312 694.875C261.113 695.037 261.914 695.2 262.738 695.367C265 696 265 696 268 698C268.452 701.465 268.494 703.288 266.477 706.195C265.989 706.791 265.502 707.386 265 708C263.497 705.856 261.998 703.71 260.5 701.562C260.071 700.951 259.641 700.339 259.199 699.709C256 695.113 256 695.113 256 694Z" fill="#B1B2B3"/>
<path d="M59 455C60.9542 457.931 61.647 459.558 62 463C61.34 463.66 60.68 464.32 60 465C58.68 465 57.36 465 56 465C55.67 462.03 55.34 459.06 55 456C56.32 455.67 57.64 455.34 59 455Z" fill="#1556A4"/>
<path d="M636 133C638.884 134.293 640.872 135.659 643 138C642.34 139.32 641.68 140.64 641 142C638.116 140.707 636.128 139.341 634 137C634.66 135.68 635.32 134.36 636 133Z" fill="#1556A4"/>
<path d="M49 381C50.65 381 52.3 381 54 381C54 383.97 54 386.94 54 390C52.35 389.67 50.7 389.34 49 389C49 386.36 49 383.72 49 381Z" fill="#1556A4"/>
<path d="M50 368C51.65 368 53.3 368 55 368C55.125 374.75 55.125 374.75 54 377C52.68 377 51.36 377 50 377C50 374.03 50 371.06 50 368Z" fill="#1556A4"/>
<path d="M51 356C52.65 356 54.3 356 56 356C55.67 358.97 55.34 361.94 55 365C53.68 365 52.36 365 51 365C51 362.03 51 359.06 51 356Z" fill="#1556A4"/>
<path d="M626 125C629.914 126.269 631.791 127.512 634 131C632.02 131.99 632.02 131.99 630 133C628.35 131.68 626.7 130.36 625 129C625.33 127.68 625.66 126.36 626 125Z" fill="#1556A4"/>
<path d="M575 89C577.938 89.75 577.938 89.75 581 91C582 93 582 93 582 95C581.34 95.66 580.68 96.32 580 97C576.535 95.02 576.535 95.02 573 93C573.66 91.68 574.32 90.36 575 89Z" fill="#1556A4"/>
<path d="M552 77C554.929 77.6276 557.361 78.5862 560 80C559.67 81.65 559.34 83.3 559 85C556.36 83.68 553.72 82.36 551 81C551.33 79.68 551.66 78.36 552 77Z" fill="#1556A4"/>
<path d="M529 67C531.31 67.66 533.62 68.32 536 69C536.33 70.32 536.66 71.64 537 73C533.234 74.2554 531.628 73.3706 528 72C528.33 70.35 528.66 68.7 529 67Z" fill="#1556A4"/>
<path d="M518 64C520.31 64.66 524.12 65.82 526.5 66.5C526.83 67.82 525.16 69.64 525.5 71C523 71 520.628 70.3706 517 69C517.33 67.35 517.66 65.7 518 64Z" fill="#1556A4"/>
<path d="M53 343C54.98 343.495 54.98 343.495 57 344C57 346.64 57 349.28 57 352C55.35 352 53.7 352 52 352C52.33 349.03 52.66 346.06 53 343Z" fill="#1556A4"/>
<path d="M55 331C56.32 331 57.64 331 59 331C59 333.64 59 336.28 59 339C57.0625 339.562 57.0625 339.562 55 340C54.67 339.67 54.34 339.34 54 339C54.1764 336.309 54.6184 333.671 55 331Z" fill="#1556A4"/>
<path d="M64 294C66.0625 294.438 66.0625 294.438 68 295C67.125 300.75 67.125 300.75 66 303C64.68 302.67 63.36 302.34 62 302C62.875 295.125 62.875 295.125 64 294Z" fill="#1556A4"/>
<path d="M77 258C78.32 258.66 79.64 259.32 81 260C79.25 265.75 79.25 265.75 77 268C76.01 267.67 75.02 267.34 74 267C74.5573 263.656 75.3517 260.967 77 258Z" fill="#1556A4"/>
<path d="M82 247C84.0625 247.438 84.0625 247.438 86 248C85.4528 251.375 84.9451 253.082 83 256C81.68 255.67 80.36 255.34 79 255C80.875 248.125 80.875 248.125 82 247Z" fill="#1556A4"/>
<path d="M106 203C107.32 203.33 108.64 203.66 110 204C109.453 207.375 108.945 209.082 107 212C105.68 211.67 104.36 211.34 103 211C103.547 207.625 104.055 205.918 106 203Z" fill="#1556A4"/>
<path d="M687 189C689.799 191.528 691.458 193.204 692 197C690.68 197.33 689.36 197.66 688 198C684 193.25 684 193.25 684 191C684.99 190.34 685.98 189.68 687 189Z" fill="#1556A4"/>
<path d="M693 199C695.5 201.5 695 201 694 202C693 202.5 692.86 202.66 691.5 203C691 203 691 202.5 690 201C690.99 200.34 691.98 199.68 693 199Z" fill="#1556A4"/>
<path d="M670 170C672.763 170.381 673.841 170.836 675.812 172.875C676.204 173.576 676.596 174.278 677 175C676.67 175.99 676.34 176.98 676 178C673.237 177.619 672.159 177.164 670.188 175.125C669.796 174.424 669.404 173.723 669 173C669.33 172.01 669.66 171.02 670 170Z" fill="#1556A4"/>
<path d="M607 109C612.875 112.75 612.875 112.75 614 115C613.01 115.99 612.02 116.98 611 118C609.02 116.35 607.04 114.7 605 113C605.66 111.68 606.32 110.36 607 109Z" fill="#1556A4"/>
<path d="M541 72C544.438 72.8125 544.438 72.8125 548 74C548.33 74.99 548.66 75.98 549 77C548.67 77.66 548.34 78.32 548 79C544.625 78.4528 542.918 77.9451 540 76C540.33 74.68 540.66 73.36 541 72Z" fill="#1556A4"/>
<path d="M68 282C69.32 282.33 70.64 282.66 72 283C71.34 285.64 70.68 288.28 70 291C68.35 290.67 66.7 290.34 65 290C65.99 287.36 66.98 284.72 68 282Z" fill="#1556A4"/>
<path d="M72 270C73.32 270.33 74.64 270.66 76 271C75.125 276.75 75.125 276.75 74 279C72.35 278.67 70.7 278.34 69 278C69.99 275.36 70.98 272.72 72 270Z" fill="#1556A4"/>
<path d="M663 160C664.98 161.65 666.96 163.3 669 165C668.34 166.32 667.68 167.64 667 169C666.34 169 665.68 169 665 169C663.711 167.469 663.711 167.469 662.375 165.5C661.929 164.85 661.483 164.201 661.023 163.531C660.686 163.026 660.348 162.521 660 162C660.99 161.34 661.98 160.68 663 160Z" fill="#1556A4"/>
<path d="M617 117C619.494 118.204 621.681 119.454 624 121C623.34 122.32 622.68 123.64 622 125C619.506 123.796 617.319 122.546 615 121C615.66 119.68 616.32 118.36 617 117Z" fill="#1556A4"/>
<path d="M596 102C598.972 103.125 601.335 104.223 604 106C603.34 107.32 602.68 108.64 602 110C597.37 108.538 597.37 108.538 595.625 106C595 104 595 104 596 102Z" fill="#1556A4"/>
<path d="M586 95C589.465 96.98 589.465 96.98 593 99C592.67 100.32 592.34 101.64 592 103C586.25 101.375 586.25 101.375 584 98C584.66 97.01 585.32 96.02 586 95Z" fill="#1556A4"/>
<path d="M52 431C53.32 431 54.64 431 56 431C56.33 433.97 56.66 436.94 57 440C55.35 440 53.7 440 52 440C52 437.03 52 434.06 52 431Z" fill="#1556A4"/>
<path d="M87 236C88.65 236.33 90.3 236.66 92 237C90.68 239.64 89.36 242.28 88 245C86.68 244.34 85.36 243.68 84 243C84.99 240.69 85.98 238.38 87 236Z" fill="#1556A4"/>
<path d="M100 214C101.32 214.66 102.64 215.32 104 216C102.68 218.31 101.36 220.62 100 223C98.68 222.34 97.36 221.68 96 221C97.074 218.085 97.7781 216.222 100 214Z" fill="#1556A4"/>
<path d="M679 179C681.5 181.312 681.5 181.312 684 184C684 184.99 684 185.98 684 187C682.68 187 681.36 187 680 187C678.25 185 678.25 185 677 183C677.66 181.68 678.32 180.36 679 179Z" fill="#1556A4"/>
<path d="M564 83C566.938 83.75 566.938 83.75 570 85C570.875 87.125 570.875 87.125 571 89C568 90 568 90 564.812 88.5625C563.884 88.0469 562.956 87.5312 562 87C562.66 85.68 563.32 84.36 564 83Z" fill="#1556A4"/>
<path d="M93 225C94.32 225.33 95.64 225.66 97 226C96.4007 229.356 95.1538 231.378 93 234C92.01 233.34 91.02 232.68 90 232C91.875 227.25 91.875 227.25 93 225Z" fill="#1556A4"/>
<path d="M654 151C657.367 152.393 658.986 153.979 661 157C660.34 157.66 659.68 158.32 659 159C658.01 159 657.02 159 656 159C653.812 156 653.812 156 652 153C652.66 152.34 653.32 151.68 654 151Z" fill="#1556A4"/>
<path d="M53 444C54.65 444 56.3 444 58 444C58 446.64 58 449.28 58 452C56.68 452 55.36 452 54 452C53.67 449.36 53.34 446.72 53 444Z" fill="#1556A4"/>
<path d="M50 406C51.32 406 52.64 406 54 406C54 408.97 54 411.94 54 415C52.68 415 51.36 415 50 415C50 412.03 50 409.06 50 406Z" fill="#1556A4"/>
<path d="M57 319C58.65 319 60.3 319 62 319C61.125 324.75 61.125 324.75 60 327C58.68 327 57.36 327 56 327C56.33 324.36 56.66 321.72 57 319Z" fill="#1556A4"/>
<path d="M60 306C61.65 306.33 63.3 306.66 65 307C64.34 309.64 63.68 312.28 63 315C61.68 315 60.36 315 59 315C59.33 312.03 59.66 309.06 60 306Z" fill="#1556A4"/>
<path d="M645 142C648.367 143.393 649.986 144.979 652 148C650.02 148.99 650.02 148.99 648 150C646.35 148.02 644.7 146.04 643 144C643.66 143.34 644.32 142.68 645 142Z" fill="#1556A4"/>
<path d="M51 419C52.32 419 53.64 419 55 419C55 421.64 55 424.28 55 427C53.68 427 52.36 427 51 427C51 424.36 51 421.72 51 419Z" fill="#1556A4"/>
<path d="M50 394C51.32 394 52.64 394 54 394C54 396.64 54 399.28 54 402C52.68 402 51.36 402 50 402C50 399.36 50 396.72 50 394Z" fill="#1556A4"/>
<path d="M233 685C235.475 685.495 235.475 685.495 238 686C237.67 688.64 237.34 691.28 237 694C235 693 235 693 234.367 691.152C234.205 690.421 234.042 689.691 233.875 688.938C233.707 688.204 233.54 687.471 233.367 686.715C233.246 686.149 233.125 685.583 233 685Z" fill="#B1B2B3"/>
<path fill-rule="evenodd" clip-rule="evenodd" d="M318.017 350.869C320.124 350.875 322.231 350.869 324.339 350.863C325.696 350.864 327.054 350.865 328.411 350.867L332.04 350.87C333.474 350.933 334.213 350.965 334.935 351.095C335.704 351.234 336.453 351.484 338.001 352C340.786 351.915 343.539 351.77 346.317 351.578C356.263 350.976 366.184 350.78 376.147 350.759C378.951 350.75 381.754 350.719 384.558 350.688L384.589 350.687C400.05 350.597 404.91 350.568 408.972 352.354C410.835 353.173 412.529 354.374 415.001 356.125C429.32 376.708 427.953 409.206 424.001 433C421.841 444.641 421.212 448.034 419.267 450.293C418.467 451.222 417.444 451.959 416.001 453C393.338 460.245 363.707 459.497 340.001 458L339.001 457L337.688 458.937C336.912 459.887 336.492 460.399 335.973 460.773C335.365 461.212 334.62 461.46 333.001 462C330.418 462.153 327.856 462.257 325.27 462.316L322.996 462.379C320.602 462.444 318.208 462.503 315.813 462.562C314.189 462.605 312.565 462.649 310.94 462.693C306.961 462.8 302.981 462.901 299.001 463L298.001 466L326.001 467C322.936 470.677 321.54 472.353 320.038 473.519L319 473C308.674 477.874 303.411 480.358 297.873 481.732C292.118 483.161 286.065 483.393 273.722 483.864H273.722H273.721L272.003 484L272.001 484V484L272 484V486C287.454 490.496 302.328 486.117 316.559 479.562C318.415 478.375 319.365 477.496 320.133 476.042C322.558 474.59 324.942 472.999 327.283 471.276C328.785 470.132 330.265 468.959 331.743 467.785C334.747 465.41 336.29 464.876 340.038 464.858L342.577 464.836L345.345 464.824C347.302 464.803 349.26 464.782 351.218 464.759L354.331 464.725C371.833 464.515 388.522 463.695 405.727 460.359C408.868 459.863 411.829 459.864 415.001 460C408.798 477.532 397.399 492.338 383.001 504C383.362 507.125 384.558 508.813 386.563 511.125C388.119 512.96 388.682 513.623 388.886 514.383C389.001 514.814 389.001 515.276 389.001 516C385.466 517.825 381.922 519.633 378.376 521.437L375.349 523.002L372.399 524.496L369.702 525.876C366.756 527.102 364.178 527.727 361.001 528C359.979 527.202 359.451 526.79 358.98 526.319C358.475 525.816 358.036 525.245 357.128 524.065L357.126 524.063L357.126 524.062L357.126 524.062L355.321 521.785L354.001 520L351.255 521.39C341.339 526.395 331.753 531.037 321.001 534V536H342.001C337.559 540.442 330.566 541.815 324.47 542.253C320.547 542.225 316.643 542.063 312.728 541.847C311.246 541.783 309.765 541.72 308.284 541.659C305.144 541.528 302.005 541.384 298.866 541.23C293.982 540.994 289.097 540.802 284.211 540.62C275.106 540.279 266.003 539.913 256.899 539.54C253.035 539.382 249.171 539.226 245.307 539.07L245.303 539.07L245.204 539.066L244.001 539.017C235.668 538.68 227.334 538.341 219.001 538C219.685 535.017 220.435 533.112 222.321 530.687L223.692 528.867C224.651 527.618 225.615 526.373 226.583 525.132L226.583 525.132C227.942 523.483 228.606 522.677 229.003 521.756C229.383 520.878 229.52 519.894 229.789 517.972C227.616 512.534 221.026 507.816 216.001 505C211.948 504.208 209.066 505.366 205.345 506.862L205.001 507C203.459 507.57 201.916 508.136 200.372 508.699C197.869 509.613 195.377 510.537 192.901 511.521L192.901 511.521C185.035 514.602 182.168 515.726 179.467 515.414C177.918 515.235 176.423 514.583 174.071 513.558C172.745 512.872 171.43 512.164 170.126 511.437L168.014 510.325C163.41 507.873 158.93 505.24 154.603 502.324C148.849 499.395 142.339 497.912 136 496.468C134.952 496.23 133.91 495.992 132.876 495.75L130.252 495.123C124.475 493.76 118.682 492.504 112.872 491.297C110.767 490.854 108.661 490.41 106.556 489.967L106.441 489.943C104.361 489.509 102.278 489.092 100.194 488.674C87.2997 486.014 83.3905 485.208 80.7805 482.919C79.645 481.924 78.7554 480.647 77.4787 478.816C74.9154 473.868 74.9514 469.715 74.9984 464.294L75.001 464C82.3997 461.738 89.7987 459.477 97.1981 457.218C100.636 456.168 104.074 455.118 107.511 454.067L107.511 454.067C134.428 445.839 134.428 445.839 147.497 442.026C152.865 440.454 158.215 438.823 163.563 437.187L166.655 436.244C169.104 435.497 171.553 434.748 174.001 434C174.076 429.359 174.04 424.855 173.52 420.242C171.692 403.401 172.337 386.605 176.465 370.178C177.204 367.176 177.833 364.152 178.463 361.126L178.541 360.754C178.797 359.775 178.911 359.342 179.135 358.977C179.312 358.688 179.559 358.442 180.001 358C181.624 357.793 183.256 357.652 184.888 357.537L188.11 357.306L191.688 357.066L195.445 356.807C211.108 355.753 226.786 354.937 242.463 354.122L243.525 354.066C247.23 353.873 250.934 353.677 254.639 353.481L255.95 353.412C262.971 353.041 269.991 352.675 277.012 352.312C281.063 352.102 285.113 351.885 289.163 351.661C298.786 351.135 308.379 350.839 318.017 350.869ZM345.605 470.902L348.148 470.907C350.828 470.912 353.508 470.925 356.188 470.937C358.005 470.942 359.822 470.947 361.639 470.951C366.092 470.962 370.546 470.979 375 471C368.78 490.637 348.733 508.494 331 518L328.359 519.465C306.717 530.385 280.058 531.364 257.188 523.937C245.797 519.62 232.193 513.198 224 504V500C228.289 498.38 232.589 496.797 236.903 495.245C238.363 494.715 239.819 494.174 241.272 493.624C252.491 489.385 261.082 488.438 273.079 490.539C291.636 493.466 309.061 491.031 324.438 480C327.723 477.435 330.859 474.74 334 472C337.525 470.825 340.878 470.857 344.492 470.893C344.86 470.896 345.231 470.9 345.605 470.902ZM305.074 411.047L301.875 410.375C283.878 406.253 270.543 408.028 253.281 413.762C251.299 414.422 249.315 415.074 247.328 415.717C243.453 416.963 239.578 418.211 235.71 419.478C229.85 421.403 223.976 423.27 218.075 425.065C216.402 425.574 215.261 425.921 214.12 426.271C211.678 427.019 209.239 427.779 201.585 430.163L201.575 430.166L201.555 430.172L201.547 430.175L201.544 430.176L199.5 430.813C191.088 433.433 182.686 436.07 174.339 438.892C167.963 441.058 161.599 443.157 155.109 444.957C145.114 447.714 135.23 450.783 125.361 453.959C123.511 454.556 121.662 455.153 119.812 455.75C117.113 456.615 114.414 457.481 111.717 458.355L109.207 459.172C108.658 459.348 108.114 459.513 107.577 459.677C104.402 460.643 101.462 461.539 99 464C102.11 465.766 105.335 466.769 108.762 467.752L111.02 468.383C112.615 468.833 114.211 469.283 115.807 469.731C118.31 470.427 120.812 471.125 123.311 471.838C124.946 472.304 126.582 472.767 128.219 473.225L130.582 473.883C136.811 475.675 142.353 476.916 148.821 475.292L151.57 474.297L154.712 473.186C156.911 472.393 159.116 471.619 161.327 470.862C175.525 466.047 189.671 461.094 203.746 455.93C208.238 454.279 212.734 452.64 217.232 451.006L218.524 450.537L218.539 450.531L218.544 450.529C223.566 448.706 228.587 446.882 233.605 445.049C244.455 441.081 255.319 437.15 266.201 433.271L268.188 432.563C275.408 429.988 282.632 427.433 289.913 425.036L291.844 424.403C294.291 423.6 296.739 422.799 299.188 422L302.624 420.905L305.793 419.875C309.424 418.717 312.054 417.433 315 415C314.302 414.302 313.816 413.817 313.262 413.433C312.001 412.559 310.38 412.205 305.074 411.047ZM333.906 357.512C347.901 376.617 350.502 399.312 347.344 422.356C345.634 432.804 342.637 441.988 337 451L335.364 453.648C332.682 456.316 331.238 456.569 327.515 456.567L325.391 456.488L323.188 456.467C320.874 456.439 318.563 456.376 316.25 456.313C314.678 456.288 313.107 456.265 311.535 456.244C307.689 456.189 303.845 456.103 300 456C300.447 451.497 300.584 450.118 301.15 448.946C301.399 448.428 301.732 447.951 302.212 447.263L303.73 446.043L305.407 444.627L307.188 443.188C316.5 435.109 322.14 426.205 323.196 413.672C323.884 402.24 323.554 392.292 318 382L316.426 379.016C310.065 368.044 301.681 363.289 290 359V358C295.017 357.713 300.034 357.428 305.051 357.146C306.756 357.049 308.461 356.952 310.167 356.855C312.624 356.714 315.081 356.576 317.539 356.438L319.831 356.305C328.899 355.801 330.958 355.687 332.508 356.519C332.963 356.764 333.374 357.09 333.906 357.512ZM214.868 381.14C217.077 374.804 219.12 368.441 221.001 362C212.678 361.904 204.375 361.923 196.059 362.309L193.501 362.437C190.656 362.572 187.84 362.754 185.001 363L185.001 363L185.001 363L185.001 363C183.964 364.037 183.233 364.768 182.681 365.614C181.363 367.633 181.058 370.312 180.025 379.378L179.813 381.625C178.263 397.385 177.974 413.405 181.001 429C187.098 428.6 192.145 427.444 197.837 425.23C200.817 424.099 202.307 423.533 203.801 422.979C205.296 422.425 206.795 421.883 209.792 420.798L212.001 420C212.1 416.543 212.201 413.085 212.308 409.629C212.352 408.211 212.395 406.793 212.438 405.375C212.497 403.296 212.557 401.218 212.621 399.14L212.684 397.148C212.85 391.623 213.259 386.447 214.868 381.14ZM273 359C270.807 361.414 268.729 362.757 265.813 364.187C255.689 369.702 249.588 378.295 246.25 389.187C244.612 395.703 244.283 402.308 244 409C233.483 413.78 230.149 415.296 226.671 415.776C225.056 416 223.41 416 221 416C220.506 396.384 222.047 380.691 231 363C233.264 360.736 234.074 360.673 236.947 360.448L237.27 360.422L237.43 360.41L240.148 360.187C244.805 359.881 249.462 359.634 254.125 359.437L256.965 359.306C262.316 359.07 267.644 358.955 273 359ZM283.98 367.727L281.875 367.75C274.759 367.672 271.088 368.824 265.688 373.437C256.309 382.057 252.904 390.363 252 403C254.311 403 255.287 403 256.221 402.803C256.904 402.658 257.564 402.409 258.707 401.977C266.262 398.689 273.069 397.155 281.176 396.262L284 396C285.513 389.021 287.635 383.308 291.5 377.289C293.068 374.897 294.54 372.459 296 370C291.929 368.392 288.363 367.743 283.98 367.727ZM303.938 373.067C309.955 375.79 314.019 382.339 316.438 388.25C318.276 393.293 319.135 397.943 319.063 403.313L319.036 405.989L319.001 408C308.7 407.596 298.984 405.385 289.001 403C288.651 392.024 291.782 384.335 299.001 376L300.435 374.215C301.226 373.602 301.617 373.298 302.06 373.156C302.495 373.017 302.979 373.034 303.938 373.067ZM382 357C393.115 387.579 392.602 417.592 385 449L384 451C382.84 451.178 382.177 451.279 381.51 451.354C380.618 451.453 379.722 451.505 377.625 451.625L375.652 451.74C367.344 452.169 359.023 452.088 350.706 452.007L350 452C351.07 446.652 352.357 441.726 354.5 436.688C364.126 411.957 359.321 384.627 349 361L348 358C354.226 357.139 360.411 356.677 366.688 356.375L369.486 356.219L372.199 356.086L374.632 355.963C377.195 356.004 379.506 356.428 382 357ZM377 371C380.428 373.068 382.707 375.122 384 379C384.514 385.277 383.93 388.087 380 393L382.5 395.438C385.3 398.813 385.674 401.499 385.434 405.813C384.765 409.187 383.2 411.412 381 414C377.783 415.609 374.479 415.614 371 415C367.838 412.444 365.27 410.21 364.762 406.047C364.577 400.318 365.354 397.444 369 393L367.062 390.625C363.806 386.481 363.443 383.185 364 378C365.265 375.091 366.255 373.54 368.812 371.688C371.822 370.742 373.852 370.56 377 371ZM308 432C304.321 435.239 301.007 436.98 296.395 438.601L294.406 439.31C292.274 440.069 290.138 440.814 288.001 441.559L287.812 441.625C286.245 442.18 284.679 442.736 283.112 443.293C279.66 444.52 276.206 445.742 272.75 446.962C264.275 449.96 255.818 453.008 247.36 456.056L244.046 457.251C240.819 458.413 237.591 459.572 234.363 460.731C225.858 463.786 217.358 466.844 208.91 470.055C199.879 473.477 190.741 476.587 181.598 479.696C178.673 480.692 175.749 481.695 172.826 482.697C170.93 483.344 169.033 483.99 167.137 484.637L164.544 485.527C149.84 490.51 140.126 492.33 125.125 487.75C117.31 485.445 109.569 483.389 101.562 481.875C94.7747 480.572 88.9212 478.714 83 475C86.1282 474 88.1114 474.035 91.2744 474.864L93.804 475.512L96.5156 476.238L99.3332 476.968C102.308 477.741 105.279 478.526 108.25 479.312C110.235 479.831 112.221 480.348 114.207 480.865C117.875 481.82 121.542 482.781 125.208 483.747C126.805 484.165 128.403 484.583 130 485L132.273 485.596C142.171 488.145 149.148 486.457 158.75 483.5L160.673 482.915C177.906 477.657 194.798 471.372 211.68 465.091L211.681 465.091C213.476 464.423 215.271 463.755 217.067 463.088C221.556 461.423 226.047 459.763 230.538 458.104L230.541 458.103L230.545 458.101L230.549 458.1L230.553 458.098L230.557 458.097L231.781 457.644C237.606 455.492 243.43 453.339 249.253 451.182C261.712 446.568 274.189 442.007 286.688 437.5L289.023 436.657C301.925 432.007 304.312 431.146 306.457 431.555C306.943 431.648 307.418 431.806 308 432ZM375.626 398.875L379.001 399C379.055 400.458 379.094 401.916 379.126 403.375L379.196 405.836C379.11 406.791 379.062 407.324 378.863 407.794C378.612 408.389 378.118 408.882 377.001 410C375.78 409.908 375.155 409.862 374.545 409.743C373.905 409.619 373.28 409.416 372.001 409C369.852 405.776 369.618 404.733 370.001 401C370.892 400.109 371.386 399.615 371.98 399.33C372.72 398.975 373.615 398.944 375.626 398.875ZM376.817 378.11C375.751 377.505 374.422 377.364 371 377L371 377L371 377C370.58 377.42 370.337 377.663 370.186 377.955C369.977 378.358 369.944 378.852 369.867 380.031L369.875 382.5L369.867 384.969C369.944 386.148 369.977 386.642 370.186 387.045C370.337 387.337 370.58 387.58 371 388L371 388L371 388C373.81 388.296 375.416 388.382 377.812 386.812C379.402 384.386 379.365 382.846 379 380C378.066 379.066 377.495 378.495 376.817 378.11ZM233 526C237.447 526.392 240.653 528.348 244.328 530.591C244.55 530.726 244.774 530.863 245 531V532H230C231.568 528.079 231.907 527.233 232.462 526.568C232.615 526.385 232.784 526.216 233 526ZM304 473H294V476C294.733 475.929 295.424 475.883 296.081 475.84C299.171 475.635 301.521 475.479 304 473Z" fill="#F49409"/>
<path d="M74.1755 189.986L109.539 140.656L125.539 152.656L120.039 160.156L110.539 153.656L97.5393 172.156L120.539 188.156L130.539 174.656L122.539 168.656L128.039 161.156L152 178.999L146.539 186.156L137.039 179.156L127.039 192.656L152.039 210.656L165.539 191.656L156.039 184.656L161.539 177.156L177.663 188.88L141.734 238.704L135.532 233.65L141.734 225.15L115.032 206.15L86.532 186.15L80.532 194.65L74.1755 189.986Z" fill="#1556A4"/>
<path d="M267.479 30C269 33.5 269.5 36 271 39.5C271.477 40.4848 271.988 41.4853 272.479 42.5C272.931 43.441 273.46 45.0305 273.925 46C274.344 46.8693 275.068 48.1043 275.5 49C276.418 51.1548 276.5 51 277.479 53C275.5 54 275 54 272 55.5C271 56 271 56 270 56.5C270 55.84 267.021 51.5 266.5 51C260.748 47.903 257.066 47.0219 250.479 48C243.296 50.2551 237.5 55 235.104 61.3125C232.048 74.4565 237.526 87.0306 243.796 98.3555C245.224 100.599 245.979 101.5 246.979 103C247.979 104.5 248.479 105 248.979 105.5C249.479 106 251 107 251.5 107.5C253.479 109 253.479 109 255.542 110.062C256.922 110.774 263.987 116.375 274.487 113.875C284.114 111.034 291.487 104.375 296.479 95C296.974 93.515 296.974 93.515 297.479 92C298.139 92 298.487 93.375 300.487 95.875C302.487 98.875 301.987 97.875 302.987 99.375C299.234 109.688 288.054 117.225 278.638 121.762C268.495 126.406 257.564 127.991 246.792 124.375C234.38 119.257 225.801 111.148 220.487 98.7734C216.076 86.6328 215.495 73.888 220.808 61.9336C227.927 49.4418 238.938 42.5074 252.183 37.8477C255.434 37.0116 257.66 36.833 261 37C260.938 36.2163 261.064 35.8075 261 35C260.903 33.7685 260.5 33 260.5 31.5001C264 30.5 264.5 30.5 267.479 30Z" fill="#1556A4"/>
<path d="M300.052 20.2838L330 16.5L330.552 24.2859L361.059 69.785L377.552 18.7859L377.059 10.785L408.053 7.28711L408.053 14.7871L398.559 15.7858L406.059 82.7851L418.059 81.7851L418.059 90.2851L378.059 94.2851L378.059 85.7851L388.059 84.7851L382.559 35.285L361.059 97.2851L325.559 47.285L330.059 92.2851L340.559 91.2851L341.559 98.7851L309.839 102.574L309.839 94.7851L320.559 93.7851L317.059 65.7851L312.552 27.2839L301.052 28.7852L300.052 20.2838Z" fill="#1556A4"/>
<path fill-rule="evenodd" clip-rule="evenodd" d="M198.997 158.409L181.977 139.237L190.882 131.387C201.152 122.333 202.139 106.668 193.085 96.3974C184.031 86.1269 168.365 85.1406 158.095 94.1943L149.06 102.16L149.036 102.133L128 120.048L133.5 126.409L142.5 120.048L184.5 170.909L176.5 177.409L182.319 183.832L203.355 165.918L212.497 158.409L206.999 151.907L198.997 158.409ZM156.457 105.164L153.797 107.471L174.523 131.366L177.183 129.059C183.781 123.336 184.49 113.347 178.768 106.748C173.044 100.149 163.055 99.4404 156.457 105.164Z" fill="#1556A4"/>
<path fill-rule="evenodd" clip-rule="evenodd" d="M486.569 19.0159L444.504 10L443.283 19.5017L453.002 21.0016L446 54.0017L439.002 86.0016L427.501 83.9996L426 91.8354L469.138 100.946C491.769 105.726 513.991 91.254 518.77 68.6224C523.54 46.0387 509.139 23.8531 486.569 19.0159ZM476.419 25.4059L470.53 24.1167L456.419 88.5737L466.215 90.7183C480.243 93.7891 494.103 84.9072 497.174 70.88L499.309 61.1275C502.852 44.9422 492.604 28.9491 476.419 25.4059Z" fill="#1556A4"/>
<circle cx="438" cy="462" r="2" fill="#F49409"/>
<circle cx="460" cy="462" r="2" fill="#F49409"/>
<path d="M337.963 352C338.738 352.775 338.947 353.973 339.561 354.86C339.665 355.009 339.699 355.202 339.797 355.344C339.897 355.488 340.043 355.595 340.106 355.765C340.171 355.942 340.301 356.037 340.403 356.19C340.528 356.378 340.609 356.593 340.748 356.772C341.082 357.2 341.259 357.738 341.538 358.202C341.842 358.707 342.129 359.221 342.414 359.735C342.658 360.173 342.933 360.595 343.16 361.043C343.241 361.203 343.297 361.402 343.398 361.548C343.536 361.747 343.68 361.912 343.786 362.135C343.967 362.513 344.183 362.871 344.359 363.254C344.528 363.625 344.689 364.004 344.894 364.357C345.053 364.631 345.172 364.941 345.314 365.226C345.418 365.433 345.488 365.752 345.637 365.923C345.718 366.015 345.748 366.172 345.808 366.28C345.897 366.44 345.951 366.661 346.015 366.834C346.212 367.365 346.163 367.991 346.268 368.545C346.333 368.891 346.291 369.272 346.291 369.624" stroke="white" stroke-width="0.1" stroke-linecap="round"/>
<path d="M346.376 369.751C346.385 369.391 346.46 369.036 346.46 368.676C346.46 368.404 346.433 368.14 346.421 367.87C346.401 367.417 346.342 366.87 346.082 366.48C345.864 366.153 345.643 365.79 345.514 365.419C345.391 365.063 345.276 364.681 345.049 364.388C344.618 363.835 344.367 363.196 344.042 362.582C343.977 362.46 343.908 362.321 343.834 362.203C343.781 362.121 343.696 362.016 343.652 361.928C343.561 361.747 343.315 361.588 343.264 361.381" stroke="white" stroke-width="0.1" stroke-linecap="round"/>
<path d="M346.299 369.61C346.312 369.634 346.315 369.669 346.334 369.689C346.348 369.704 346.377 369.737 346.377 369.699C346.377 369.511 346.33 369.328 346.33 369.139C346.33 369.019 346.33 368.898 346.33 368.778C346.33 368.766 346.333 368.602 346.338 368.604C346.359 368.615 346.375 368.693 346.381 368.714C346.397 368.766 346.417 368.817 346.429 368.871C346.44 368.919 346.44 368.962 346.44 369.011C346.44 369.093 346.385 368.971 346.376 368.952C346.365 368.93 346.363 368.908 346.356 368.884C346.354 368.879 346.351 368.845 346.354 368.868C346.368 368.968 346.37 369.068 346.37 369.169C346.37 369.207 346.364 369.194 346.36 369.155C346.326 368.866 346.358 368.573 346.369 368.283C346.371 368.22 346.357 368.161 346.354 368.099C346.345 367.941 346.398 368.412 346.409 368.57C346.409 368.58 346.413 368.603 346.409 368.614C346.4 368.635 346.39 368.57 346.384 368.548C346.313 368.27 346.27 367.986 346.234 367.702C346.228 367.657 346.22 367.521 346.22 367.566C346.22 367.707 346.225 367.849 346.239 367.989C346.245 368.044 346.265 368.099 346.267 368.156C346.273 368.329 346.213 367.812 346.198 367.64C346.185 367.491 346.17 367.34 346.165 367.19C346.165 367.173 346.162 367.151 346.165 367.133C346.17 367.108 346.176 367.184 346.178 367.21C346.198 367.393 346.214 367.577 346.236 367.759C346.248 367.864 346.267 367.97 346.267 368.075C346.267 368.155 346.322 368.229 346.322 368.312C346.322 368.346 346.322 368.38 346.322 368.414C346.322 368.461 346.309 368.32 346.302 368.274C346.288 368.177 346.283 368.075 346.283 367.978C346.283 367.929 346.283 367.881 346.283 367.833C346.283 367.783 346.283 367.733 346.283 367.683C346.283 367.667 346.279 367.639 346.287 367.671C346.311 367.764 346.339 367.854 346.365 367.946C346.389 368.028 346.398 368.112 346.417 368.195C346.432 368.262 346.448 368.34 346.448 368.409C346.448 368.468 346.395 368.377 346.379 368.36C346.355 368.334 346.336 368.266 346.331 368.23C346.329 368.219 346.33 368.208 346.33 368.198C346.33 368.151 346.325 368.292 346.322 368.338C346.316 368.437 346.327 368.733 346.314 368.635C346.287 368.434 346.295 368.222 346.303 368.02C346.307 367.931 346.319 367.842 346.338 367.754C346.344 367.726 346.344 367.687 346.358 367.662C346.369 367.641 346.379 367.757 346.379 367.763C346.395 367.915 346.407 368.068 346.409 368.221C346.409 368.225 346.412 368.289 346.404 368.286C346.383 368.278 346.371 368.242 346.365 368.226C346.328 368.125 346.309 368.016 346.288 367.911C346.254 367.735 346.236 367.563 346.236 367.385C346.236 367.355 346.235 367.324 346.236 367.294C346.237 367.254 346.291 367.374 346.291 367.375C346.335 367.482 346.344 367.599 346.372 367.71C346.391 367.784 346.359 367.747 346.346 367.696C346.295 367.493 346.299 367.282 346.299 367.073C346.299 367.003 346.313 367.212 346.323 367.282C346.337 367.39 346.346 367.494 346.346 367.603C346.346 367.62 346.359 367.663 346.344 367.654C346.327 367.645 346.316 367.589 346.313 367.576C346.279 367.45 346.255 367.32 346.234 367.191C346.222 367.117 346.215 367.038 346.212 366.963C346.212 366.962 346.211 366.943 346.216 366.95C346.238 366.987 346.245 367.039 346.26 367.079C346.282 367.139 346.298 367.2 346.318 367.26C346.321 367.269 346.329 367.303 346.314 367.282C346.245 367.185 346.204 367.086 346.169 366.973C346.145 366.896 346.189 367.136 346.189 367.217C346.189 367.307 346.156 367.16 346.15 367.139C346.133 367.085 346.113 367.022 346.11 366.965C346.107 366.921 346.068 366.863 346.05 366.824C346.029 366.778 346.015 366.72 345.988 366.678C345.947 366.613 346.051 366.763 346.057 366.771C346.128 366.864 346.18 366.96 346.231 367.065C346.256 367.117 346.267 367.172 346.287 367.225C346.304 367.267 346.282 367.227 346.274 367.21C346.227 367.109 346.203 367.002 346.168 366.899C346.139 366.815 346.114 366.716 346.07 366.639C346.062 366.623 346.09 366.669 346.1 366.684C346.158 366.772 346.203 366.859 346.248 366.954C346.253 366.965 346.278 367.03 346.264 366.981C346.243 366.908 346.202 366.829 346.166 366.762C346.141 366.716 346.111 366.676 346.08 366.635C346.056 366.603 346.039 366.567 346.021 366.532C346.012 366.515 345.989 366.491 345.984 366.473C345.98 366.457 345.974 366.452 345.961 366.442C345.937 366.424 345.965 366.496 345.968 366.505C346.003 366.596 346.015 366.697 346.058 366.784C346.067 366.802 346.065 366.806 346.054 366.786C346.019 366.724 346.007 366.648 345.984 366.581C345.95 366.484 345.916 366.387 345.875 366.296C345.865 366.274 345.857 366.225 345.838 366.209C345.817 366.191 345.821 366.155 345.795 366.146" stroke="white" stroke-width="0.1" stroke-linecap="round"/>
<path d="M344.922 364.289C344.927 364.338 344.969 364.398 344.989 364.443C345.008 364.484 345.006 364.532 345.024 364.572C345.03 364.586 345.06 364.682 345.05 364.649C345.046 364.638 345.017 364.497 345.018 364.497C345.041 364.497 345.084 364.609 345.092 364.624C345.114 364.669 345.136 364.716 345.162 364.758C345.185 364.794 345.166 364.733 345.162 364.721C345.152 364.692 345.15 364.656 345.131 364.631C345.114 364.61 345.129 364.625 345.138 364.643C345.171 364.708 345.201 364.779 345.219 364.849C345.235 364.909 345.251 364.959 345.278 365.013C345.294 365.046 345.305 365.083 345.327 365.112C345.34 365.129 345.349 365.174 345.355 365.195C345.365 365.23 345.387 365.282 345.406 365.312C345.444 365.373 345.474 365.445 345.506 365.509C345.539 365.576 345.542 365.669 345.579 365.727C345.597 365.756 345.605 365.797 345.622 365.828C345.637 365.853 345.668 365.873 345.678 365.903" stroke="white" stroke-width="0.1" stroke-linecap="round"/>
<path d="M338.976 457.179C338.994 456.869 339.425 456.511 339.614 456.288C339.896 455.956 340.085 455.579 340.328 455.221C340.721 454.642 341.053 454.045 341.32 453.389C341.415 453.155 341.544 452.912 341.658 452.684C341.785 452.43 341.834 452.155 341.945 451.896C342.135 451.452 342.209 450.955 342.403 450.517C342.49 450.323 342.486 450.049 342.596 449.874C342.696 449.715 342.831 449.566 342.924 449.407C343.007 449.262 343.086 449.301 343.176 449.407C343.284 449.535 343.221 449.851 343.146 449.984C342.889 450.441 342.531 450.86 342.366 451.375C342.259 451.707 342.135 452.113 341.918 452.403C341.751 452.625 341.619 452.999 341.58 453.269C341.553 453.456 341.327 453.711 341.234 453.896C341.136 454.092 341.046 454.273 340.944 454.476C340.886 454.593 340.777 454.661 340.725 454.765C340.673 454.868 340.575 454.895 340.518 455.009C340.404 455.238 340.236 455.432 340.11 455.658C340.007 455.844 339.824 455.954 339.738 456.117C339.64 456.302 339.432 456.455 339.335 456.648C339.305 456.708 339.187 456.912 339.142 456.937C339.024 457.005 339.013 457.184 338.928 457.227" stroke="white" stroke-width="0.1" stroke-linecap="round"/>
<path d="M341.663 452.803C341.663 452.838 341.644 452.869 341.643 452.903C341.643 452.916 341.648 452.94 341.639 452.951C341.634 452.958 341.619 452.977 341.617 452.984C341.612 453.003 341.59 453.029 341.59 453.047C341.59 453.083 341.577 453.116 341.577 453.151C341.577 453.202 341.56 453.273 341.528 453.314C341.519 453.326 341.511 453.372 341.511 453.356C341.511 453.336 341.505 453.317 341.505 453.297C341.504 453.26 341.498 453.225 341.498 453.188C341.498 453.152 341.51 453.134 341.524 453.103C341.529 453.091 341.551 453.038 341.551 453.06C341.551 453.099 341.529 453.143 341.513 453.178C341.499 453.21 341.468 453.243 341.458 453.277C341.454 453.292 341.434 453.301 341.432 453.317C341.431 453.325 341.42 453.352 341.415 453.359C341.406 453.374 341.387 453.442 341.412 453.442C341.438 453.442 341.451 453.419 341.458 453.396C341.477 453.341 341.455 453.377 341.435 453.408C341.419 453.434 341.394 453.462 341.381 453.488C341.369 453.512 341.349 453.528 341.337 453.551C341.326 453.57 341.32 453.602 341.32 453.623C341.32 453.635 341.279 453.684 341.267 453.691C341.252 453.7 341.241 453.736 341.233 453.752C341.221 453.774 341.213 453.794 341.201 453.815C341.179 453.854 341.167 453.894 341.145 453.933C341.129 453.963 341.115 453.998 341.1 454.029C341.086 454.057 341.084 454.106 341.062 454.126C341.046 454.14 341.039 454.173 341.022 454.192C341 454.216 340.988 454.252 340.974 454.283C340.961 454.312 340.955 454.349 340.935 454.375C340.927 454.385 340.922 454.41 340.911 454.416C340.897 454.425 340.89 454.43 340.88 454.444C340.857 454.475 340.813 454.513 340.806 454.552C340.801 454.579 340.768 454.603 340.76 454.629" stroke="white" stroke-width="0.1" stroke-linecap="round"/>
<path d="M341.781 452.513C341.784 452.493 341.822 452.465 341.834 452.448C341.85 452.426 341.869 452.402 341.879 452.376C341.889 452.35 341.9 452.324 341.9 452.297C341.9 452.265 341.92 452.237 341.92 452.206C341.92 452.178 341.929 452.126 341.943 452.101C341.965 452.061 341.97 451.997 341.999 451.963C342.026 451.931 342.008 451.875 342.051 451.923C342.062 451.936 342.058 451.956 342.058 451.972C342.058 451.983 342.058 451.994 342.058 452.005C342.058 452.019 342.045 452.022 342.045 452.035C342.045 452.052 342.022 452.066 342.019 452.081C342.017 452.09 342.022 452.102 342.015 452.11C342.01 452.116 342.005 452.119 342.005 452.127C342.005 452.151 341.968 452.243 341.939 452.243" stroke="white" stroke-width="0.1" stroke-linecap="round"/>
<path d="M342.086 451.993C342.086 451.934 342.118 451.877 342.134 451.821C342.152 451.759 342.162 451.694 342.175 451.631C342.191 451.552 342.209 451.477 342.211 451.396C342.212 451.371 342.217 451.345 342.223 451.32C342.227 451.302 342.231 451.247 342.231 451.265C342.231 451.283 342.215 451.309 342.206 451.323C342.184 451.356 342.175 451.396 342.161 451.432C342.136 451.499 342.116 451.568 342.1 451.637C342.089 451.685 342.058 451.728 342.046 451.775C342.036 451.815 342.02 451.844 342.02 451.887C342.02 451.899 342.014 451.926 342.02 451.936C342.028 451.949 342.046 451.921 342.046 451.914" stroke="white" stroke-width="0.1" stroke-linecap="round"/>
<path d="M342.29 451.525C342.29 451.412 342.29 451.3 342.29 451.188C342.29 451.156 342.292 451.108 342.275 451.079C342.254 451.042 342.256 451.166 342.265 451.208C342.283 451.29 342.285 451.392 342.27 451.475C342.264 451.505 342.243 451.656 342.211 451.656" stroke="white" stroke-width="0.1" stroke-linecap="round"/>
<path d="M342.316 451.326C342.32 451.288 342.339 451.245 342.352 451.208C342.38 451.124 342.406 451.038 342.438 450.954C342.485 450.828 342.497 450.697 342.527 450.566C342.546 450.482 342.564 450.399 342.58 450.315C342.583 450.297 342.594 450.284 342.593 450.265C342.592 450.252 342.565 450.307 342.563 450.311C342.484 450.433 342.439 450.573 342.404 450.713C342.386 450.785 342.348 450.85 342.322 450.918C342.31 450.95 342.293 450.979 342.289 451.013C342.287 451.031 342.268 451.043 342.27 451.063C342.271 451.081 342.31 451.062 342.316 451.058C342.341 451.039 342.34 451.021 342.352 450.993C342.391 450.904 342.405 450.799 342.42 450.703C342.448 450.518 342.572 450.363 342.642 450.193C342.667 450.132 342.685 450.068 342.714 450.008C342.734 449.968 342.76 449.929 342.78 449.893C342.802 449.854 342.828 449.816 342.846 449.777C342.856 449.756 342.883 449.681 342.902 449.672" stroke="white" stroke-width="0.1" stroke-linecap="round"/>
<path d="M342.48 451.01C342.5 450.917 342.547 450.827 342.573 450.735C342.597 450.648 342.626 450.565 342.662 450.482C342.726 450.335 342.774 450.184 342.836 450.036C342.879 449.935 342.919 449.838 342.952 449.732C342.967 449.684 342.988 449.633 342.988 449.583C342.988 449.551 343.001 449.524 343.001 449.494" stroke="white" stroke-width="0.1" stroke-linecap="round"/>
<path d="M343.002 449.494C342.963 449.494 342.935 449.536 342.91 449.56C342.886 449.582 342.874 449.614 342.854 449.639C342.84 449.658 342.813 449.685 342.805 449.705C342.797 449.722 342.786 449.735 342.778 449.751C342.767 449.772 342.748 449.805 342.732 449.82C342.709 449.842 342.696 449.882 342.683 449.909C342.664 449.947 342.648 449.986 342.63 450.024C342.604 450.078 342.596 450.139 342.572 450.193C342.555 450.231 342.527 450.257 342.527 450.302C342.527 450.324 342.593 450.274 342.601 450.268C342.657 450.231 342.721 450.165 342.749 450.102C342.768 450.058 342.79 450.015 342.81 449.972C342.84 449.908 342.854 449.841 342.883 449.778C342.906 449.727 342.93 449.664 342.943 449.61C342.95 449.579 342.976 449.49 342.976 449.522C342.976 449.538 342.975 449.552 342.968 449.567C342.945 449.62 342.93 449.676 342.905 449.728C342.868 449.806 342.827 449.892 342.776 449.962C342.7 450.07 342.642 450.186 342.608 450.314C342.593 450.369 342.589 450.429 342.571 450.482C342.568 450.49 342.558 450.547 342.576 450.542C342.591 450.538 342.592 450.509 342.6 450.5C342.629 450.466 342.63 450.415 342.643 450.374C342.653 450.341 342.664 450.308 342.671 450.273C342.678 450.237 342.701 450.204 342.713 450.169C342.751 450.066 342.781 449.959 342.821 449.857C342.837 449.816 342.852 449.776 342.883 449.745" stroke="white" stroke-width="0.1" stroke-linecap="round"/>
<path d="M342.633 450.779C342.636 450.669 342.708 450.586 342.743 450.487C342.76 450.44 342.796 450.391 342.804 450.34C342.809 450.304 342.833 450.253 342.85 450.219C342.87 450.179 342.873 450.13 342.896 450.092C342.925 450.045 342.926 449.98 342.946 449.929C342.957 449.899 342.956 449.865 342.968 449.836C342.975 449.817 342.976 449.79 342.976 449.77C342.976 449.756 342.969 449.731 342.989 449.744" stroke="white" stroke-width="0.1" stroke-linecap="round"/>
<path d="M342.803 450.39C342.841 450.352 342.863 450.297 342.885 450.248C342.922 450.163 342.972 450.085 343.009 450C343.051 449.9 343.066 449.806 343.066 449.698C343.066 449.649 343.055 449.579 343.032 449.534C343.022 449.513 343.024 449.494 343.007 449.474C343 449.466 342.981 449.433 342.981 449.421C342.981 449.406 343.018 449.408 343.028 449.408C343.055 449.408 343.074 449.415 343.093 449.435C343.132 449.476 343.145 449.541 343.145 449.599C343.145 449.693 343.159 449.79 343.121 449.876C343.11 449.9 343.107 449.945 343.085 449.962C343.062 449.979 343.041 450.041 343.014 450.041" stroke="white" stroke-width="0.1" stroke-linecap="round"/>
<path d="M342.836 450.318C342.841 450.277 342.892 450.229 342.919 450.2C342.936 450.18 342.943 450.153 342.955 450.13C342.963 450.113 342.98 450.1 342.986 450.081C342.995 450.053 343.009 450.029 343.015 449.998C343.024 449.959 343.039 449.919 343.04 449.879C343.045 449.743 343.067 449.611 343.067 449.475" stroke="white" stroke-width="0.1" stroke-linecap="round"/>
<path d="M343 450L348 441L353.5 428L355 417M355 399.5L353.5 386.5L350 377L346.5 370" stroke="white" stroke-width="0.01"/>
<path d="M418.999 351.491L454.174 351.491C454.346 351.491 454.499 351.381 454.554 351.218L466.076 316.603C466.198 316.236 466.719 316.239 466.837 316.607L478.208 352.143C478.311 352.463 478.738 352.522 478.923 352.241L491.52 333.112C491.702 332.836 492.121 332.887 492.232 333.199L506.082 372.362C506.208 372.719 506.713 372.717 506.837 372.36L519.657 335.325C519.772 334.992 520.23 334.959 520.391 335.273L529.144 352.318C529.285 352.593 529.672 352.61 529.837 352.349L538.845 338.126C538.919 338.01 539.046 337.94 539.183 337.94L586.963 337.94" stroke="white" stroke-width="5.5"/>
</g>
<defs>
<linearGradient id="paint0_linear_215_272" x1="783" y1="174" x2="55" y2="486" gradientUnits="userSpaceOnUse">
<stop stop-color="#2F2483"/>
<stop offset="0.5" stop-color="#0089D0"/>
<stop offset="1" stop-color="#0A4295"/>
</linearGradient>
<clipPath id="clip0_215_272">
<rect width="800" height="747" fill="white"/>
</clipPath>
</defs>
</svg>
